HIERARCHY
ROOT Hips
{
	OFFSET 0.000000 0.000000 0.000000 
	CHANNELS 6 Xposition Yposition Zposition Zrotation Yrotation Xrotation
	JOINT LeftUpLeg
	{
		OFFSET 0.000000 0.000000 0.000000 
		CHANNELS 3 Zrotation Yrotation Xrotation
		JOINT LeftLeg
		{
			OFFSET 3.811170 -8.520760 0.839290 
			CHANNELS 3 Zrotation Yrotation Xrotation
			JOINT LeftFoot
			{
				OFFSET 2.562200 -7.039590 0.000000 
				CHANNELS 3 Zrotation Yrotation Xrotation
				JOINT LeftToeBase
				{
					OFFSET 0.157640 -0.433110 2.322550 
					CHANNELS 3 Zrotation Yrotation Xrotation
					End Site
					{
						OFFSET 0.000000 0.000000 0.000000 
					}
				}
			}
		}
	}
	JOINT RigthUpLeg
	{
		OFFSET 0.000000 0.000000 0.000000 
		CHANNELS 3 Zrotation Yrotation Xrotation
		JOINT RightLeg
		{
			OFFSET -3.848050 -8.780180 0.839290 
			CHANNELS 3 Zrotation Yrotation Xrotation
			JOINT RightFoot
			{
				OFFSET -2.568260 -7.056230 0.000000 
				CHANNELS 3 Zrotation Yrotation Xrotation
				JOINT RightToeBase
				{
					OFFSET -0.164730 -0.452590 2.363150 
					CHANNELS 3 Zrotation Yrotation Xrotation
					End Site
					{
						OFFSET 0.000000 0.000000 0.000000 
					}
				}
			}
		}
	}
	JOINT Spine
	{
		OFFSET 0.028270 2.035590 -0.193380 
		CHANNELS 3 Zrotation Yrotation Xrotation
		JOINT Spine1
		{
			OFFSET 0.056720 2.048850 -0.042750 
			CHANNELS 3 Zrotation Yrotation Xrotation
			JOINT Neck1
			{
				OFFSET -0.054170 1.746240 0.172020 
				CHANNELS 3 Zrotation Yrotation Xrotation
				JOINT Head
				{
					OFFSET 0.104070 1.761360 -0.123970 
					CHANNELS 3 Zrotation Yrotation Xrotation
					End Site
					{
						OFFSET 0.000000 0.000000 0.000000 
					}
				}
			}
			JOINT LeftArm
			{
				OFFSET 3.362410 1.200890 -0.311210 
				CHANNELS 3 Zrotation Yrotation Xrotation
				JOINT LeftForeArm
				{
					OFFSET 4.983000 -0.000000 -0.000000 
					CHANNELS 3 Zrotation Yrotation Xrotation
					JOINT LeftHand
					{
						OFFSET 3.483560 -0.000000 -0.000000 
						CHANNELS 3 Zrotation Yrotation Xrotation
						JOINT LeftHandIndex1
						{
							OFFSET 0.715260 -0.000000 -0.000000 
							CHANNELS 3 Zrotation Yrotation Xrotation
							End Site
							{
								OFFSET 0.000000 0.000000 0.000000 
							}
						}
					}
				}
			}
			JOINT RightArm
			{
				OFFSET -3.136600 1.374050 -0.404650 
				CHANNELS 3 Zrotation Yrotation Xrotation
				JOINT RightForeArm
				{
					OFFSET -5.241900 -0.000000 -0.000000 
					CHANNELS 3 Zrotation Yrotation Xrotation
					JOINT RightHand
					{
						OFFSET -3.444170 -0.000000 -0.000000 
						CHANNELS 3 Zrotation Yrotation Xrotation
						JOINT RightHandIndex1
						{
							OFFSET -0.622530 -0.000000 -0.000000 
							CHANNELS 3 Zrotation Yrotation Xrotation
							End Site
							{
								OFFSET 0.000000 0.000000 0.000000 
							}
						}
					}
				}
			}
		}
	}
}
MOTION
Frames: 8
Frame Time: 0.008333
4.847296 15.567984 -2.364512 -5.013435 -25.555210 3.808602 -25.977196 34.436714 -39.827686 12.947816 2.629109 15.487344 -17.786650 21.925898 -1.552740 7.664033 5.704394 4.926309 -23.099653 -18.172302 23.002415 8.640035 -9.724369 30.778984 -13.698758 -7.384903 -1.941001 -16.973240 -1.902482 3.419089 -16.953264 9.305565 0.491301 -11.612530 -8.200100 -20.160423 17.096949 1.393815 6.531565 -21.773390 -16.295448 -11.510083 -26.525972 -47.839130 2.493343 57.806412 -75.315735 7.832134 -6.392578 -10.882931 -12.876723 2.653611 -4.114614 -7.228922 101.766930 6.438665 46.654335 -101.226646 54.019997 22.067200 6.094144 -21.688244 -21.460625 10.807429 11.531351 16.519426 
4.832201 15.566452 -2.370173 -4.986884 -25.394220 3.820341 7.794028 16.357885 -38.832058 8.108249 10.553252 38.195099 -19.509590 15.739921 -6.697380 -18.919378 -0.324450 14.217994 -17.323187 -20.038557 17.989462 28.405313 -26.609285 34.763329 -15.195071 -11.693404 4.693763 16.020367 -5.861020 16.521793 10.703982 23.689960 18.929317 -9.637151 -5.070995 -26.596693 8.347917 17.473484 16.280523 -18.098537 0.731045 -3.486187 -58.424454 -50.492035 4.994847 53.001900 -62.105503 0.666509 -21.426489 19.190727 18.979765 -13.377597 10.569900 -1.425321 95.860329 32.927399 18.906485 -78.927193 74.960945 8.736461 -14.506832 -16.261375 -15.933017 7.843205 5.209466 4.668863 
4.817107 15.564921 -2.375835 -4.960369 -25.233309 3.832239 -16.682604 5.812742 -22.151831 -29.718609 10.619173 30.422174 -14.274822 3.892689 -5.175995 7.162465 22.221195 3.844211 -5.095569 6.609531 26.841900 47.823532 -5.203605 9.183482 -16.976000 -6.782805 -22.695354 7.889784 -2.806913 8.691914 -17.902729 6.774313 18.674217 17.860456 -21.350273 -2.011882 -8.909902 -14.003417 18.741745 -15.866816 17.821150 10.280417 -27.080105 -44.983471 12.227124 86.310806 -83.918777 21.247915 -5.141843 -11.732671 20.158262 20.537918 11.025269 4.028080 114.284958 7.961069 46.426880 -81.101837 75.921661 5.389515 11.070615 10.645532 -14.398460 12.202444 21.792072 -10.842460 
4.802012 15.563389 -2.381496 -4.933893 -25.072481 3.844295 -6.870075 41.305183 -39.363174 2.884346 28.705292 15.262635 8.350505 -1.904206 -29.533379 12.853327 -22.267990 9.187532 -15.412687 -16.301455 -9.190453 28.710142 2.811159 12.913321 -16.761822 -18.042789 -0.852640 16.641861 -3.521781 20.977955 -17.730083 5.964951 -16.089218 -4.941674 -21.254725 6.668801 -9.043538 14.571019 3.082208 -17.731161 -20.608049 11.566233 -37.348076 -34.893002 18.465202 87.007660 -52.572582 -8.961695 0.474107 3.946151 18.014652 6.952528 -20.820370 8.574347 104.342438 39.343987 34.048222 -85.988853 51.884457 -18.819674 -9.497071 -18.790167 0.487096 19.904257 -8.870512 1.819629 
4.786918 15.561857 -2.387158 -4.907456 -24.911741 3.856510 -8.577214 5.160994 -13.682081 -10.660102 15.981935 26.866268 -0.347744 3.346977 7.705124 -0.988815 -19.426857 -7.762419 -21.175591 7.633433 -12.623253 26.218578 2.063893 16.942591 20.753384 -22.221983 -5.656996 18.746147 -20.229099 12.915424 9.806986 -17.263983 -23.948040 -10.000891 -21.349340 -7.181527 -10.851076 15.414132 19.313892 2.097807 22.107639 -14.907415 -24.254768 -13.296581 -0.580406 92.163246 -82.180664 -6.834242 -9.090980 -8.994981 -15.967918 10.415833 21.790312 13.087456 108.699699 7.032576 41.382626 -95.007256 54.826275 -5.750727 -18.387203 18.337934 -12.650318 -5.649669 -21.903091 -11.176276 
4.771644 15.560423 -2.392403 -4.886722 -24.730591 3.870037 0.745903 19.296144 -9.239187 -17.280170 25.128000 13.588840 7.120508 9.457714 -19.576290 15.641000 -10.951031 -7.440417 -8.024913 2.218787 -3.265149 50.264908 -12.402404 21.251074 5.570487 -20.909407 -11.746902 -2.212885 5.816465 -2.950507 5.922320 22.736473 3.093474 -23.421055 -20.966831 -19.062454 -19.726154 10.122998 6.491044 -4.074136 -14.658022 11.116114 -56.424656 -49.710983 8.773674 85.180283 -48.280582 4.085306 -2.459405 -7.334425 -1.306312 -2.020527 -20.285570 18.870649 98.089966 11.553320 61.699322 -79.241798 74.326530 -11.945490 16.486431 4.741057 16.159943 3.630515 -13.370979 2.774943 
4.756367 15.558990 -2.397638 -4.866138 -24.549143 3.883723 -3.774015 16.137833 -38.287533 -2.543218 6.404356 8.392552 -0.375925 -3.300035 -10.280175 -9.490179 1.660875 -6.767179 -7.624184 -34.581600 27.179319 24.672287 -21.729145 40.325775 -20.674936 9.378958 -8.952555 -12.760534 -13.028906 -7.812444 18.803104 11.936642 11.562572 14.517343 -10.716748 7.504389 8.376607 -1.121083 15.892742 -9.797689 -20.756685 4.431301 -55.215755 -20.452526 -3.118099 68.592155 -74.743927 3.939332 12.288246 -17.370077 14.207391 12.170486 -4.424349 -19.269579 97.976250 14.082049 29.461842 -93.572472 86.037445 -9.229720 -4.012683 14.981213 -20.398184 -3.788832 -0.013225 -21.402969 
4.741089 15.557558 -2.402874 -4.845577 -24.367853 3.897542 -22.307804 23.837313 -28.791151 -6.858736 19.936653 42.808029 -10.234916 19.544430 -3.473287 18.213234 -3.804499 -18.366688 -17.453932 5.904102 -4.026284 21.788527 -7.510352 4.987970 3.401898 -1.539292 10.791512 -3.702927 22.310484 21.993584 11.429164 -2.464225 13.158191 -18.055319 -8.801509 -31.349525 -16.672812 -17.735371 -6.305144 18.699953 -19.128908 20.783331 -34.026550 -49.721115 28.454287 78.645561 -43.821659 -15.691713 3.795554 2.867679 11.891713 -17.390646 15.568958 0.676310 76.342903 19.419861 28.575865 -101.379494 56.721958 -17.853443 6.579284 2.337324 2.000574 -3.333573 -0.638590 9.030556 
